<svg width="111" height="41" viewBox="0 0 111 41" fill="none" xmlns="http://www.w3.org/2000/svg">
<path d="M33.3333 3.83325H6.66665C5.78259 3.83325 4.93474 4.18444 4.30962 4.80956C3.6845 5.43468 3.33331 6.28253 3.33331 7.16659V37.1666L9.99998 30.4999H33.3333C34.2174 30.4999 35.0652 30.1487 35.6903 29.5236C36.3155 28.8985 36.6666 28.0506 36.6666 27.1666V7.16659C36.6666 6.28253 36.3155 5.43468 35.6903 4.80956C35.0652 4.18444 34.2174 3.83325 33.3333 3.83325Z" fill="#1070FF"/>
<path d="M57.8 28.24C61.26 28.24 63.94 26.2 64.5 23.12H61.84C61.36 24.74 59.84 25.78 57.86 25.78C55.18 25.78 53.46 23.78 53.46 20.68C53.46 17.56 55.16 15.6 57.86 15.6C59.8 15.6 61.26 16.6 61.76 18.3H64.46C63.96 15.16 61.38 13.14 57.92 13.14C53.64 13.14 50.78 16.16 50.78 20.7C50.78 25.28 53.54 28.24 57.8 28.24ZM65.8558 23.04C65.8558 26.12 68.0758 28.24 71.1358 28.24C74.1958 28.24 76.4158 26.12 76.4158 23.04C76.4158 19.96 74.1958 17.84 71.1358 17.84C68.0758 17.84 65.8558 19.96 65.8558 23.04ZM68.2958 23.04C68.2958 21.24 69.4558 20.02 71.1358 20.02C72.8158 20.02 73.9758 21.24 73.9758 23.04C73.9758 24.84 72.8158 26.06 71.1358 26.06C69.4558 26.06 68.2958 24.84 68.2958 23.04ZM80.7898 28V22.68C80.7898 21.08 81.7098 20.04 83.2098 20.04C84.4698 20.04 85.2898 20.84 85.2898 22.5V28H87.7298V21.92C87.7298 19.36 86.4498 17.82 83.9698 17.82C82.6298 17.82 81.4298 18.4 80.8098 19.4L80.6098 18.12H78.3498V28H80.7898ZM92.7319 28H95.1319L99.2519 18.12H96.7319L94.9319 22.66C94.5119 23.74 94.1519 24.78 94.0119 25.4C93.8919 24.86 93.5519 23.84 93.1319 22.66L91.4119 18.12H88.8119L92.7319 28ZM99.5863 23.04C99.5863 26.12 101.806 28.24 104.866 28.24C107.926 28.24 110.146 26.12 110.146 23.04C110.146 19.96 107.926 17.84 104.866 17.84C101.806 17.84 99.5863 19.96 99.5863 23.04ZM102.026 23.04C102.026 21.24 103.186 20.02 104.866 20.02C106.546 20.02 107.706 21.24 107.706 23.04C107.706 24.84 106.546 26.06 104.866 26.06C103.186 26.06 102.026 24.84 102.026 23.04Z" fill="black"/>
</svg>
